<svg xmlns="http://www.w3.org/2000/svg" width="110" height="106.441" viewBox="0 0 110 106.441">
  <g id="radio" transform="translate(0 -8.282)">
    <path id="Path_17" data-name="Path 17" d="M57.879,215.367a24.774,24.774,0,0,0-24.747,24.747,24.524,24.524,0,0,0,5.049,14.981,1.611,1.611,0,1,0,2.564-1.952,21.33,21.33,0,0,1-4.39-13.029,21.52,21.52,0,1,1,8.651,17.252,1.611,1.611,0,0,0-1.929,2.581,24.747,24.747,0,1,0,14.8-44.58Z" transform="translate(-26.014 -162.594)" fill="#3a7d44"/>
    <path id="Path_18" data-name="Path 18" d="M120.418,292.143a10.51,10.51,0,1,0-10.51,10.51A10.521,10.521,0,0,0,120.418,292.143Zm-17.8,0a7.287,7.287,0,1,1,7.287,7.287,7.3,7.3,0,0,1-7.287-7.287Z" transform="translate(-78.044 -214.624)" fill="#3a7d44"/>
    <path id="Path_19" data-name="Path 19" d="M108.389,62.007A1.611,1.611,0,0,0,110,60.4V49.045a8.74,8.74,0,0,0-8.73-8.73H99.322V36.527a3.334,3.334,0,0,0-3.33-3.33h-10.8a3.334,3.334,0,0,0-3.33,3.33v3.789h-3.9V36.527a3.334,3.334,0,0,0-3.33-3.33h-10.8a3.334,3.334,0,0,0-3.33,3.33v3.789H28.137v-3.3L86.491,16.6a5.167,5.167,0,1,0-1.069-3.143c0,.034,0,.068,0,.1L26.981,34.009a3.313,3.313,0,0,0-2.174-.813h-10.8a3.334,3.334,0,0,0-3.33,3.33v3.789H8.73A8.74,8.74,0,0,0,0,49.045v56.948a8.74,8.74,0,0,0,8.73,8.73h92.54a8.74,8.74,0,0,0,8.73-8.73V66.842a1.611,1.611,0,0,0-3.223,0v39.152a5.513,5.513,0,0,1-5.507,5.507H63.73V43.538H101.27a5.513,5.513,0,0,1,5.507,5.507V60.4a1.611,1.611,0,0,0,1.611,1.611Zm-17.8-50.5a1.948,1.948,0,1,1-1.948,1.948A1.95,1.95,0,0,1,90.593,11.5ZM13.9,36.527a.108.108,0,0,1,.107-.107h10.8a.106.106,0,0,1,.065.024l0,.01c.011.031.027.06.04.09v3.772H13.9ZM8.73,111.5a5.513,5.513,0,0,1-5.507-5.507V49.045A5.513,5.513,0,0,1,8.73,43.538H60.507V111.5Zm55-71.185V36.527a.108.108,0,0,1,.107-.107h10.8a.108.108,0,0,1,.107.107v3.789Zm21.356,0V36.527a.108.108,0,0,1,.107-.107h10.8a.108.108,0,0,1,.107.107v3.789Z" fill="#3a7d44"/>
    <path id="Path_20" data-name="Path 20" d="M350.023,193.846a3.334,3.334,0,0,0-3.33-3.33H318.1a3.334,3.334,0,0,0-3.33,3.33v7.24a3.334,3.334,0,0,0,3.33,3.33h28.6a3.334,3.334,0,0,0,3.33-3.33Zm-3.223,7.24a.108.108,0,0,1-.107.107H318.1a.108.108,0,0,1-.107-.107v-7.24a.108.108,0,0,1,.107-.107h28.6a.108.108,0,0,1,.107.107Z" transform="translate(-247.141 -143.082)" fill="#3a7d44"/>
    <path id="Path_21" data-name="Path 21" d="M321.717,287.25a6.95,6.95,0,1,0-6.95-6.95A6.958,6.958,0,0,0,321.717,287.25Zm0-10.678a3.728,3.728,0,1,1-3.728,3.728A3.732,3.732,0,0,1,321.717,276.572Z" transform="translate(-247.141 -208.119)" fill="#3a7d44"/>
    <path id="Path_22" data-name="Path 22" d="M421.118,273.35a6.95,6.95,0,1,0,6.95,6.95A6.958,6.958,0,0,0,421.118,273.35Zm0,10.678a3.728,3.728,0,1,1,3.728-3.728A3.732,3.732,0,0,1,421.118,284.028Z" transform="translate(-325.187 -208.12)" fill="#3a7d44"/>
    <path id="Path_23" data-name="Path 23" d="M348.412,356.184H316.378a1.611,1.611,0,1,0,0,3.223h32.033a1.611,1.611,0,0,0,0-3.223Z" transform="translate(-247.141 -273.157)" fill="#3a7d44"/>
    <path id="Path_24" data-name="Path 24" d="M348.412,389.316H316.378a1.611,1.611,0,1,0,0,3.223h32.033a1.611,1.611,0,0,0,0-3.223Z" transform="translate(-247.141 -299.171)" fill="#3a7d44"/>
    <path id="Path_25" data-name="Path 25" d="M348.412,422.45H316.378a1.611,1.611,0,0,0,0,3.223h32.033a1.611,1.611,0,0,0,0-3.223Z" transform="translate(-247.141 -325.187)" fill="#3a7d44"/>
  </g>
</svg>
